<svg xmlns="http://www.w3.org/2000/svg" xml:space="preserve" width="52" height="16" viewBox="0 0 13.758 4.233"><path d="M0 0h4.233v4.233H0z" style="fill:#222034;fill-opacity:1;stroke-width:.264583;stroke-linecap:round;stroke-linejoin:round"/><circle cx=".86" cy="3.373" r=".661" style="fill:none;fill-opacity:1;stroke:#76428a;stroke-width:.264583;stroke-linecap:round;stroke-linejoin:round;stroke-opacity:1"/><circle cx="3.373" cy=".86" r=".661" style="fill:none;fill-opacity:1;stroke:#76428a;stroke-width:.264583;stroke-linecap:round;stroke-linejoin:round;stroke-opacity:1"/><path d="M1.323 2.381c.332.333.785.4.794-.264.66-.005.593-.466.264-.794" style="fill:none;fill-opacity:1;stroke:#76428a;stroke-width:.264583;stroke-linecap:round;stroke-linejoin:round;stroke-opacity:1"/><g transform="translate(4.762)"><rect width="4.233" height="4.233" rx=".529" ry=".529" style="fill:#222034;fill-opacity:1;stroke-width:.264583;stroke-linecap:round;stroke-linejoin:round"/><circle cx=".86" cy="3.373" r=".661" style="fill:none;fill-opacity:1;stroke:#76428a;stroke-width:.264583;stroke-linecap:round;stroke-linejoin:round;stroke-opacity:1"/><circle cx="3.373" cy=".86" r=".661" style="fill:none;fill-opacity:1;stroke:#76428a;stroke-width:.264583;stroke-linecap:round;stroke-linejoin:round;stroke-opacity:1"/><path d="M1.323 2.381c.332.333.785.4.794-.264.66-.005.593-.466.264-.794" style="fill:none;fill-opacity:1;stroke:#76428a;stroke-width:.264583;stroke-linecap:round;stroke-linejoin:round;stroke-opacity:1"/></g><g transform="translate(9.525)"><path d="M0 0h4.233v4.233H0z" style="fill:#222034;fill-opacity:1;stroke-width:.264583;stroke-linecap:round;stroke-linejoin:round"/><circle cx="1.144" cy="3.09" r=".512" style="fill:none;fill-opacity:1;stroke:#76428a;stroke-width:.204838;stroke-linecap:round;stroke-linejoin:round;stroke-opacity:1"/><circle cx="3.09" cy="1.144" r=".512" style="fill:none;fill-opacity:1;stroke:#76428a;stroke-width:.204838;stroke-linecap:round;stroke-linejoin:round;stroke-opacity:1"/><path d="M1.502 2.322c.257.257.608.309.615-.205.511-.004.459-.36.205-.615" style="fill:none;fill-opacity:1;stroke:#76428a;stroke-width:.204838;stroke-linecap:round;stroke-linejoin:round;stroke-opacity:1"/></g></svg>